<svg height="512" viewBox="0 0 64 64" width="512" xmlns="http://www.w3.org/2000/svg"><g id="hamburger-food-delivery-bag-restaurant"><path d="m38 24h-12a7.008 7.008 0 0 0 -7 7v1h26v-1a7.008 7.008 0 0 0 -7-7zm-12 4h-2v-2h2zm3 2h-2v-2h2zm4-2h-2v-2h2zm3 2h-2v-2h2zm4-2h-2v-2h2zm3 2h-2v-2h2z"/><path d="m42.5 39h-1.5v3h1.5a1.5 1.5 0 0 0 0-3z"/><path d="m38 46a3.01 3.01 0 0 1 -2.82-2h-16.11a7.013 7.013 0 0 0 6.93 6h12a7.013 7.013 0 0 0 6.93-6h-4.11a3.01 3.01 0 0 1 -2.82 2z"/><path d="m42.5 34h-21a1.5 1.5 0 0 0 0 3h7.5a1 1 0 0 1 1 1 1 1 0 0 0 2 0 1 1 0 0 1 1-1h3a1 1 0 0 1 1 1v5a1 1 0 0 0 2 0v-5a1 1 0 0 1 1-1h2.5a1.5 1.5 0 0 0 0-3z"/><path d="m21.5 42h13.5v-3h-1.17a3 3 0 0 1 -5.66 0h-6.67a1.5 1.5 0 0 0 0 3z"/><path d="m53 51.91 2.91-33.91h-47.82l2.91 33.91a1.128 1.128 0 0 1 -.05.41l-2.56 7.68h47.22l-2.56-7.68a1.128 1.128 0 0 1 -.05-.41zm-6-18.91a1 1 0 0 1 -1 1h-.35a3.446 3.446 0 0 1 .35 1.5 3.5 3.5 0 0 1 -1.06 2.5 3.5 3.5 0 0 1 1.06 2.5 3.446 3.446 0 0 1 -.35 1.5h.35a1 1 0 0 1 1 1 9.014 9.014 0 0 1 -9 9h-12a9.014 9.014 0 0 1 -9-9 1 1 0 0 1 1-1h.35a3.446 3.446 0 0 1 -.35-1.5 3.5 3.5 0 0 1 1.06-2.5 3.5 3.5 0 0 1 -1.06-2.5 3.446 3.446 0 0 1 .35-1.5h-.35a1 1 0 0 1 -1-1v-2a9.014 9.014 0 0 1 9-9h12a9.014 9.014 0 0 1 9 9z"/><path d="m21 10h22v6h4v-6l-4-6h-22l-4 6v6h4z"/></g></svg>