<svg id="Capa_1" enable-background="new 0 0 512 512" height="512" viewBox="0 0 512 512" width="512" xmlns="http://www.w3.org/2000/svg"><g><g><g><g><path d="m494.594 245.83h-67.359l-10.197-176.767c-.531-9.197-8.164-16.402-17.377-16.402h-246.371c-9.214 0-16.847 7.205-17.377 16.403l-4.015 69.603h-87.251c-9.598 0-17.406 7.809-17.406 17.406v10.187h-9.835c-9.598 0-17.406 7.807-17.406 17.405v15.558c0 8.887 6.699 16.228 15.311 17.268l4.909 92.483c.212 4.001 3.523 7.103 7.483 7.103.134 0 .269-.003.404-.011 4.136-.22 7.312-3.751 7.092-7.887l-2.264-42.646c31.506 12.748 52.219 43.128 52.219 77.659 0 31.075-17.128 59.344-44.176 73.866l-3.884-73.17c-.22-4.136-3.744-7.324-7.887-7.092-4.136.22-7.312 3.751-7.092 7.887l5.211 98.173c.491 9.243 8.125 16.483 17.381 16.483h430.614c9.256 0 16.891-7.24 17.381-16.483l7.545-142.151c6.828-2.355 11.753-8.829 11.753-16.445v-21.024c0-9.598-7.809-17.406-17.406-17.406zm0 15c1.327 0 2.406 1.079 2.406 2.405v21.024c0 1.327-1.079 2.406-2.406 2.406h-65.004l-1.49-25.836h66.494zm-452.353-104.757c0-1.327 1.079-2.406 2.406-2.406h105.603c1.327 0 2.406 1.079 2.406 2.406v10.187h-110.415zm-27.241 27.592c0-1.326 1.079-2.405 2.406-2.405h160.085c1.327 0 2.406 1.079 2.406 2.405v15.558c0 1.327-1.079 2.406-2.406 2.406h-160.085c-1.327 0-2.406-1.079-2.406-2.406zm157.855 159.627h138.371c1.326 0 2.405 1.079 2.405 2.405v51.649c0 1.327-1.079 2.406-2.405 2.406h-141.368zm4.956-93.373h75.564c1.327 0 2.406 1.079 2.406 2.406v42.1c0 1.327-1.08 2.406-2.406 2.406h-78.054zm-135.506 192.142-.463-8.723c35.465-15.955 58.312-51.178 58.312-90.146 0-21.492-6.784-41.929-19.62-59.101-12.13-16.229-29.303-28.541-48.462-34.817l-1.733-32.645h134.218l-11.966 225.432c-.068 1.277-1.124 2.278-2.403 2.278h-105.48c-1.279 0-2.335-1.001-2.403-2.278zm433.017 2.278h-36.982c.158-1.123.214-2.263.147-3.407l-4.982-86.38c-.238-4.136-3.8-7.303-7.919-7.056-4.136.238-7.294 3.784-7.056 7.919l4.982 86.38c.052.901-.387 1.508-.652 1.79-.266.281-.847.754-1.749.754h-253.693c.068-.489.125-.982.151-1.483l1.492-28.103h142.164c9.598 0 17.405-7.809 17.405-17.406v-51.649c0-9.598-7.808-17.405-17.405-17.405h-137.574l.874-16.461h78.851c9.598 0 17.406-7.809 17.406-17.406v-42.1c0-9.598-7.809-17.406-17.406-17.406h-74.768l.978-18.429c8.612-1.039 15.311-8.38 15.311-17.268v-15.558c0-9.598-7.808-17.405-17.406-17.405h-9.835v-10.187c0-9.598-7.808-17.406-17.406-17.406h-3.327l3.913-67.833 16.235 47.827c2.397 7.064 9.021 11.812 16.482 11.812h39.414c4.142 0 7.5-3.357 7.5-7.5s-3.358-7.5-7.5-7.5h-39.414c-1.031 0-1.946-.656-2.278-1.633l-15.675-46.179h221.751l-15.675 46.178c-.332.977-1.247 1.633-2.278 1.633h-110.504c-4.142 0-7.5 3.357-7.5 7.5s3.358 7.5 7.5 7.5h110.505c7.46 0 14.084-4.746 16.481-11.811l16.236-47.831 14.356 248.885c.229 3.988 3.536 7.068 7.48 7.068.146 0 .292-.004.438-.013 4.136-.238 7.294-3.784 7.056-7.919l-.991-17.186h54.722l-7.452 140.395c-.069 1.278-1.123 2.279-2.403 2.279z"/><path d="m390.961 399.753h-14.224c-4.143 0-7.5 3.357-7.5 7.5s3.357 7.5 7.5 7.5h14.224c4.143 0 7.5-3.357 7.5-7.5s-3.357-7.5-7.5-7.5z"/><path d="m128.553 249.789h14.224c4.142 0 7.5-3.357 7.5-7.5s-3.358-7.5-7.5-7.5h-14.224c-4.142 0-7.5 3.357-7.5 7.5s3.358 7.5 7.5 7.5z"/><path d="m142.777 261.329h-45.329c-4.142 0-7.5 3.357-7.5 7.5s3.358 7.5 7.5 7.5h45.329c4.142 0 7.5-3.357 7.5-7.5s-3.358-7.5-7.5-7.5z"/></g></g></g></g></svg>