<svg id="Capa_1" enable-background="new 0 0 512.243 512.243" height="512" viewBox="0 0 512.243 512.243" width="512" xmlns="http://www.w3.org/2000/svg"><g><path d="m380.656 182.235h-1.301c-3.12-51.798-38.313-95.082-85.939-110.205.439-.599.659-11.89 1.809-11.526 8.168-3.436 63.286-10.244 66.932-19.715 5.692-6.828.045-20.547-.905-28.098-1.712-8.59-10.169-14.167-18.74-12.345 0 0-74.635 16.709-74.635 16.709-22.598 3.591-19.734 33.011-22.302 49.669-60.695 5.16-109.006 54.412-112.686 115.512-19.586-.207-16.904 19.007-16.8 32.633-.047 9.184 7.99 16.224 17.049 15.5l16.1 241.499c.26 4.258 4.062 7.343 8.267 7.001-.044 12.78-2.899 32.63 15.501 33.133 6.583-1.022 26.151 4.006 25.915-7.499.253-11.491-19.352-6.489-25.916-7.501-.276.001-.5-.224-.5-.499v-17.634h167.233v17.634c.13 1.462-117.83-.003-118.317.501-9.686-.146-9.762 15.145.001 14.999-.001 0 117.816 0 117.816 0 18.535-.661 15.484-20.226 15.5-33.134 4.205.334 8.007-2.736 8.267-7.001 0 0 8.94-134.099 8.94-134.099.275-4.133-2.852-7.707-6.984-7.982-4.128-.267-7.707 2.851-7.982 6.984l-8.473 127.098c-2.663 0-182.09 0-184.767 0l-15.567-233.5h215.9l-5.072 76.091c-.275 4.133 2.852 7.707 6.984 7.982 4.13.288 7.707-2.852 7.982-6.984l5.14-77.091c9.059.722 17.095-6.314 17.05-15.5.037-12.857 2.849-31.96-15.5-32.632zm-16.33 0h-83.154l10.551-94.959c40.117 13.979 69.578 50.891 72.603 94.959zm-116.492 0 11.213-100.926c6.148.164 12.168.847 18.023 1.997l-10.992 98.929zm23.077-150.49c1.06.55 75.189-18.347 75.631-16.114.002.002 3.251 16.247 3.251 16.247.107.514-.316.933-.814.965 0 0-57.095 13.039-57.095 13.039-10.59 1.945-12.866 13.367-13.152 22.469-5.874-1.092-11.893-1.763-18.024-1.988l2.97-26.729c.438-3.942 3.345-7.112 7.233-7.889zm-27.028 50.218-11.141 100.272h-84.822c3.586-52.254 44.345-94.448 95.963-100.272zm137.273 132.905c.008 1.01-249.913.941-250.065.003-.001-.003-.001-17.135-.001-17.135-.008-1.01 249.913-.941 250.065-.003.001.002.001 17.135.001 17.135z"/><path d="m313.323 322.268c-1.348-75.173-113.063-75.161-114.4.002 1.348 75.171 113.062 75.159 114.4-.002zm-99.401 0c.995-55.46 83.414-55.451 84.4.002-.994 55.458-83.413 55.449-84.4-.002z"/><path d="m280.19 322.268c-.567-31.628-47.571-31.623-48.134.001.567 31.627 47.571 31.622 48.134-.001zm-33.134 0c-.163-11.76 18.298-11.76 18.134.001.162 11.759-18.299 11.759-18.134-.001z"/><path d="m198.139 397.601c-18.3.692-15.942 19.342-15.782 32.351.691 18.3 19.341 15.942 32.35 15.782 18.3-.691 15.942-19.34 15.782-32.349-.692-18.301-19.341-15.943-32.35-15.784zm17.35 15.784c-.785 22.56 5.185 16.556-17.35 17.35-1.704.78-.395-16.97-.784-17.349.001-.433.352-.784.784-.784.448.399 18.069-.929 17.35.783z"/></g></svg>