<?xml version="1.0" encoding="iso-8859-1"?>
<!-- Generator: Adobe Illustrator 19.0.0, SVG Export Plug-In . SVG Version: 6.00 Build 0)  -->
<svg version="1.1" id="Capa_1" xmlns="http://www.w3.org/2000/svg" xmlns:xlink="http://www.w3.org/1999/xlink" x="0px" y="0px"
	 viewBox="0 0 469.338 469.338" style="enable-background:new 0 0 469.338 469.338;" xml:space="preserve">
<g>
	<g>
		<path d="M465.067,44.814c-2.667-2-6.083-2.656-9.354-1.74l-225.401,64.393c-2.691-5.159-6.145-9.069-9.078-12.299
			c-0.169-0.185-0.279-0.339-0.444-0.52l240.59-63.012c4.688-1.24,7.958-5.49,7.958-10.344l-0.021-10.646
			c0-3.344-1.583-6.49-4.25-8.5c-2.667-2.01-6.083-2.646-9.354-1.74L7.734,128.387c-5.604,1.615-8.896,7.438-7.354,13.073
			c1.292,4.74,5.583,7.854,10.292,7.854c0.896,0,1.792-0.115,2.708-0.344l71.474-18.719c-0.993,4.646-3.594,7.615-7.411,11.813
			c-2.803,3.087-6.115,6.755-8.753,11.576L7.734,171.053c-5.604,1.615-8.896,7.438-7.354,13.073
			c1.292,4.74,5.583,7.854,10.292,7.854c0.896,0,1.792-0.115,2.708-0.344L64.681,178.2c1.611,12.229,7.829,19.724,12.762,25.155
			c4.917,5.427,7.896,8.698,7.896,16.323c0,7.635-2.979,10.906-7.896,16.333c-4.24,4.668-9.651,10.638-12.109,19.99H53.338
			c-5.896,0-10.667,4.771-10.667,10.667v10.667c0,76.608,45.21,142.69,110.258,173.473c-2.171,1.951-3.591,4.708-3.591,7.861
			c0,5.896,4.771,10.667,10.667,10.667h149.333c5.896,0,10.667-4.771,10.667-10.667c0-3.151-1.422-5.909-3.591-7.861
			c65.049-30.781,110.258-96.865,110.258-173.473v-10.667c0-5.896-4.771-10.667-10.667-10.667H216.613
			c1.255-1.809,2.742-3.582,4.621-5.656c5.667-6.24,13.438-14.792,13.438-30.667c0-15.865-7.771-24.417-13.438-30.656
			c-4.917-5.427-7.896-8.698-7.896-16.323c0-7.604,2.979-10.875,7.896-16.281c4.577-5.039,10.318-11.801,12.436-22.477
			l227.71-59.638c4.688-1.24,7.958-5.49,7.958-10.344l-0.021-10.646C469.317,49.97,467.734,46.824,465.067,44.814z M198.428,100.505
			c2.286,3.492,4.75,6.523,7.014,9.017c1.329,1.462,2.486,2.77,3.512,4.047l-17.826,5.092c-1.042-6.027-3.107-10.848-5.701-14.751
			L198.428,100.505z M163.014,109.78c4.469,4.914,7.186,8.249,7.522,14.764l-21.81,6.23c0.199-1.669,0.612-3.118,0.612-4.982
			c0-4.682-0.796-8.495-1.848-11.947L163.014,109.78z M106.494,124.583l20.401-5.344c0.673,1.852,1.109,3.9,1.109,6.553
			c0,5.493-1.6,8.724-4.323,12.137l-21.335,6.094c2.484-4.79,4.324-10.634,4.324-18.23
			C106.671,125.354,106.506,125.014,106.494,124.583z M93.234,189.022c-4.895-5.404-7.861-8.682-7.887-16.234l22.022-5.767
			c-0.255,1.874-0.698,3.555-0.698,5.678c0,15.865,7.771,24.417,13.438,30.656c4.917,5.427,7.896,8.698,7.896,16.323
			c0,7.635-2.979,10.906-7.896,16.333c-4.24,4.668-9.651,10.638-12.109,19.99H88.613c1.255-1.809,2.742-3.582,4.621-5.656
			c5.667-6.24,13.438-14.792,13.438-30.667C106.671,203.814,98.901,195.262,93.234,189.022z M157.734,393.147
			c-2.104,2.688-5.229,4.094-8.396,4.094c-2.313,0-4.625-0.74-6.583-2.271c-26.688-20.906-45.667-50.448-53.396-83.177
			c-1.354-5.74,2.188-11.479,7.917-12.833c5.75-1.375,11.5,2.177,12.833,7.917c6.646,28.042,22.896,53.365,45.813,71.302
			C160.546,381.814,161.359,388.512,157.734,393.147z M162.776,236.012c-4.24,4.668-9.651,10.638-12.109,19.99h-19.387
			c1.255-1.809,2.742-3.582,4.621-5.656c5.667-6.24,13.438-14.792,13.438-30.667c0-15.865-7.771-24.417-13.438-30.656
			c-4.917-5.427-7.896-8.698-7.896-16.323c0-5.546,1.617-8.786,4.383-12.232l21.082-5.521c-2.367,4.714-4.132,10.383-4.132,17.753
			c0,15.865,7.771,24.417,13.438,30.656c4.917,5.427,7.896,8.698,7.896,16.323C170.671,227.314,167.692,230.585,162.776,236.012z
			 M205.442,236.012c-4.24,4.668-9.651,10.638-12.109,19.99h-19.387c1.255-1.809,2.742-3.582,4.621-5.656
			c5.667-6.24,13.438-14.792,13.438-30.667c0-15.865-7.771-24.417-13.438-30.656c-4.917-5.427-7.896-8.698-7.896-16.323
			c0-7.604,2.979-10.875,7.896-16.281c2.478-2.728,5.294-6.047,7.751-10.074l19.958-5.228c-0.294,0.326-0.525,0.607-0.835,0.948
			c-5.667,6.24-13.438,14.781-13.438,30.635c0,15.865,7.771,24.417,13.438,30.656c4.917,5.427,7.896,8.698,7.896,16.323
			C213.338,227.314,210.359,230.585,205.442,236.012z"/>
	</g>
</g>
<g>
</g>
<g>
</g>
<g>
</g>
<g>
</g>
<g>
</g>
<g>
</g>
<g>
</g>
<g>
</g>
<g>
</g>
<g>
</g>
<g>
</g>
<g>
</g>
<g>
</g>
<g>
</g>
<g>
</g>
</svg>
