<svg id="Capa_1" enable-background="new 0 0 512 512" height="512" viewBox="0 0 512 512" width="512" xmlns="http://www.w3.org/2000/svg"><g id="XMLID_238_"><path id="XMLID_37_" d="m489.442 45.043c-65.624-28.338-146.264-45.043-233.442-45.043s-167.818 16.705-233.442 45.043c-19.992 8.634-28.013 32.69-17.331 51.62l11.823 20.952c32.58-18.551 69.473-33.02 109.658-43.002 41.256-10.248 84.756-15.445 129.292-15.445s88.036 5.196 129.292 15.445c40.185 9.982 77.078 24.451 109.659 43.001l11.823-20.952c10.681-18.929 2.66-42.985-17.332-51.619z"/><path id="XMLID_36_" d="m298.008 327.824c-21.631 0-39.229 17.438-39.229 38.871s17.599 38.871 39.229 38.871c21.632 0 39.23-17.438 39.23-38.871s-17.598-38.871-39.23-38.871z"/><path id="XMLID_35_" d="m31.872 143.883 36.778 65.177c7.994-29.343 34.983-50.996 66.973-50.996 38.262 0 69.392 30.968 69.392 69.033s-31.129 69.033-69.392 69.033c-6.734 0-13.24-.977-19.401-2.766l115.348 204.417c5.348 9.48 14.889 14.219 24.43 14.219s19.082-4.739 24.43-14.218l36.5-64.684c-6.02 1.7-12.362 2.63-18.922 2.63-38.262 0-69.392-30.968-69.392-69.033s31.129-69.033 69.392-69.033c31.817 0 58.682 21.42 66.838 50.521l115.282-204.3c-59.53-33.923-138.049-54.553-224.128-54.553s-164.598 20.63-224.128 54.553zm274.774-13.437c35.439 0 64.269 28.685 64.269 63.944s-28.831 63.944-64.269 63.944-64.268-28.685-64.268-63.944 28.83-63.944 64.268-63.944z"/><ellipse id="XMLID_34_" cx="135.622" cy="227.098" rx="39.229" ry="38.871"/><path id="XMLID_33_" d="m306.646 228.172c18.807 0 34.107-15.155 34.107-33.782s-15.3-33.782-34.107-33.782c-18.806 0-34.106 15.154-34.106 33.782s15.299 33.782 34.106 33.782z"/></g></svg>