<?xml version="1.0" encoding="iso-8859-1"?>
<!-- Generator: Adobe Illustrator 19.0.0, SVG Export Plug-In . SVG Version: 6.00 Build 0)  -->
<svg version="1.1" id="Capa_1" xmlns="http://www.w3.org/2000/svg" xmlns:xlink="http://www.w3.org/1999/xlink" x="0px" y="0px"
	 viewBox="0 0 511.999 511.999" style="enable-background:new 0 0 511.999 511.999;" xml:space="preserve">
<g>
	<g>
		<path d="M222.107,451.894l-0.29,0.002c-5.526,0.022-9.987,4.52-9.966,10.047c0.021,5.513,4.498,9.966,10.005,9.966
			c0.014,0,0.027,0,0.041,0l0.448-0.003c5.526-0.066,9.952-4.599,9.886-10.126C232.166,456.254,227.666,451.823,222.107,451.894z"/>
	</g>
</g>
<g>
	<g>
		<path d="M349.408,368.219c-5.129-2.052-10.954,0.439-13.008,5.571c-12.874,32.156-38.816,57.671-71.172,70.003
			c-5.164,1.968-7.755,7.75-5.787,12.914c1.521,3.991,5.32,6.445,9.352,6.445c1.185,0,2.39-0.212,3.562-0.659
			c37.562-14.317,67.678-43.938,82.623-81.266C357.032,376.097,354.538,370.272,349.408,368.219z"/>
	</g>
</g>
<g>
	<g>
		<path d="M415.1,313.763c0.001-23.047-13.081-43.687-33.291-53.679c0.095-1.374,0.143-2.75,0.143-4.124
			c0-27.97-19.137-51.754-45.628-58.195c-2.62-11.887-8.819-22.73-17.9-31.103c-11.086-10.225-25.503-15.855-40.592-15.855
			c-5.526,0-10.007,4.48-10.007,10.006s4.481,10.006,10.007,10.006c20.514,0,37.968,15.99,39.735,36.405
			c0.412,4.759,4.131,8.564,8.879,9.084c20.234,2.218,35.493,19.263,35.493,39.651c0,2.79-0.296,5.595-0.879,8.338
			c-1.062,4.991,1.804,9.982,6.649,11.582c16.376,5.409,27.378,20.634,27.378,37.884c0,1.286-0.063,2.571-0.187,3.849H52.914
			c-1.165-3.776-1.753-7.709-1.753-11.748c0-16.644,10.488-31.693,26.098-37.447c2.707-0.999,4.851-3.115,5.883-5.809
			c1.032-2.694,0.852-5.702-0.495-8.253c-2.349-4.446-3.538-9.261-3.538-14.311c0-15.138,10.825-27.886,25.742-30.312
			c5.455-0.887,9.157-6.028,8.27-11.483c-0.887-5.455-6.022-9.159-11.483-8.27c-24.65,4.009-42.542,25.064-42.542,50.065
			c0,4.724,0.667,9.433,1.962,13.961c-18.223,10.584-29.909,30.334-29.909,51.86c0,4.34,0.468,8.596,1.37,12.748
			c-3.35,1.617-5.668,5.036-5.668,9.006c0,83.213,52.905,157.096,131.648,183.847c1.037,0.352,2.124,0.532,3.219,0.532h118.516
			c1.095,0,2.182-0.18,3.219-0.532C362.195,484.715,415.1,410.832,415.1,327.619c0-1.416-0.298-2.762-0.829-3.983
			C414.818,320.375,415.1,317.074,415.1,313.763z M278.557,491.987H163.394c-66.61-23.325-112.253-84.4-116.246-154.36h347.655
			C390.81,407.588,345.167,468.663,278.557,491.987z"/>
	</g>
</g>
<g>
	<g>
		<path d="M147.327,195.725c-1.86-1.861-4.433-2.932-7.074-2.932c-2.632,0-5.213,1.071-7.075,2.932s-2.932,4.443-2.932,7.075
			s1.07,5.213,2.932,7.075c1.862,1.861,4.443,2.932,7.075,2.932s5.213-1.071,7.074-2.932c1.871-1.861,2.933-4.443,2.933-7.075
			S149.198,197.586,147.327,195.725z"/>
	</g>
</g>
<g>
	<g>
		<path d="M210.037,201.058c-1.86-1.861-4.442-2.932-7.074-2.932s-5.213,1.071-7.075,2.932s-2.932,4.443-2.932,7.075
			c0,2.642,1.07,5.213,2.932,7.075c1.861,1.871,4.443,2.932,7.075,2.932s5.213-1.061,7.074-2.932
			c1.861-1.861,2.933-4.443,2.933-7.075S211.9,202.92,210.037,201.058z"/>
	</g>
</g>
<g>
	<g>
		<path d="M168,248.759c-1.86-1.861-4.442-2.932-7.085-2.932c-2.631,0-5.213,1.071-7.074,2.932
			c-1.861,1.861-2.922,4.443-2.922,7.075c0,2.632,1.061,5.213,2.922,7.075c1.86,1.861,4.442,2.932,7.074,2.932
			c2.643,0,5.224-1.071,7.085-2.932c1.861-1.861,2.933-4.443,2.933-7.075C170.933,253.202,169.862,250.62,168,248.759z"/>
	</g>
</g>
<g>
	<g>
		<path d="M125.983,273.776c-1.86-1.861-4.442-2.932-7.074-2.932s-5.213,1.071-7.075,2.932s-2.932,4.443-2.932,7.075
			s1.07,5.213,2.932,7.075c1.862,1.861,4.443,2.932,7.075,2.932s5.213-1.071,7.074-2.932c1.861-1.861,2.933-4.443,2.933-7.075
			S127.845,275.637,125.983,273.776z"/>
	</g>
</g>
<g>
	<g>
		<path d="M382.35,4.647c-2.96-4.666-9.145-6.05-13.81-3.088L112.639,163.933c-4.666,2.961-6.049,9.144-3.088,13.811
			c1.906,3.003,5.146,4.646,8.459,4.646c1.833,0,3.689-0.503,5.351-1.559l255.9-162.373C383.928,15.497,385.311,9.314,382.35,4.647z
			"/>
	</g>
</g>
<g>
	<g>
		<path d="M484.605,60.461c-1.794-5.227-7.487-8.01-12.712-6.216l-284.098,97.512c-5.227,1.794-8.01,7.486-6.216,12.713
			c1.425,4.151,5.307,6.76,9.463,6.76c1.078,0,2.173-0.175,3.249-0.544l284.098-97.512C483.616,71.38,486.399,65.688,484.605,60.461
			z"/>
	</g>
</g>
<g>
</g>
<g>
</g>
<g>
</g>
<g>
</g>
<g>
</g>
<g>
</g>
<g>
</g>
<g>
</g>
<g>
</g>
<g>
</g>
<g>
</g>
<g>
</g>
<g>
</g>
<g>
</g>
<g>
</g>
</svg>
