<svg id="Capa_1" enable-background="new 0 0 512 512" height="512" viewBox="0 0 512 512" width="512" xmlns="http://www.w3.org/2000/svg"><g><path d="m188.817 339.291v-11.821c0-4.142-3.357-7.5-7.5-7.5s-7.5 3.358-7.5 7.5v11.821c0 4.142 3.357 7.5 7.5 7.5s7.5-3.358 7.5-7.5z"/><path d="m285.779 349.102c0-23.28-21.612-23.28-30.841-23.28s-30.842 0-30.842 23.28c0 18.538 13.836 33.619 30.842 33.619s30.841-15.082 30.841-33.619zm-46.682 0c0-5.742.641-8.28 15.842-8.28 15.2 0 15.841 2.539 15.841 8.28 0 10.266-7.106 18.619-15.841 18.619-8.736-.001-15.842-8.353-15.842-18.619z"/><path d="m336.06 339.291v-11.821c0-4.142-3.357-7.5-7.5-7.5s-7.5 3.358-7.5 7.5v11.821c0 4.142 3.357 7.5 7.5 7.5s7.5-3.358 7.5-7.5z"/><path d="m433.324 142.456h-17.33c-3.979-23.495-13.21-46.005-26.881-65.594l7.298-22.456h36.913c14.999 0 27.202-12.203 27.202-27.203s-12.203-27.203-27.202-27.203h-50.184c-19.66 0-37.031 12.119-43.892 30.374-25.113-15.049-53.696-22.985-83.248-22.985-39.581 0-77.704 14.411-107.346 40.578-27.935 24.659-46.478 58.035-52.641 94.489h-17.337c-14.999 0-27.202 12.203-27.202 27.203s12.203 27.203 27.202 27.203h16.853l17.969 167.295c.413 3.847 3.665 6.7 7.448 6.7.268 0 .538-.014.81-.043 4.118-.442 7.099-4.14 6.656-8.258l-6.949-64.693c9.214 4.11 20.865 7.364 37.497 7.364 26.705 0 40.735-8.418 53.114-15.846 11.749-7.049 22.847-13.708 45.397-13.708 22.552 0 33.649 6.659 45.399 13.708 12.379 7.427 26.41 15.846 53.117 15.846 14.837 0 25.622-2.544 34.408-6.06l-14.528 135.252h-239.736l-4.559-42.444c-.442-4.118-4.138-7.1-8.258-6.656-4.118.442-7.099 4.14-6.656 8.258l7.399 68.892c3.033 28.239 26.738 49.534 55.14 49.534h153.605c28.401 0 52.106-21.295 55.14-49.534l28.529-265.605h16.853c14.999 0 27.202-12.203 27.202-27.203s-12.203-27.205-27.202-27.205zm-32.58 0h-32.948l15.326-47.158c8.53 14.577 14.513 30.575 17.622 47.158zm-144.744-120.067c27.961 0 54.97 7.809 78.439 22.614l-3.247 9.99c-1.28 3.939.875 8.17 4.814 9.451 3.94 1.281 8.171-.875 9.451-4.815l7.34-22.584c4.286-13.186 16.48-22.045 30.344-22.045h50.184c6.729 0 12.202 5.474 12.202 12.203s-5.474 12.203-12.202 12.203h-42.361c-3.249 0-6.129 2.092-7.133 5.182l-31.806 97.868h-33.484l17.784-54.719c1.28-3.939-.875-8.171-4.814-9.451-3.94-1.281-8.17.875-9.451 4.814l-3.388 10.425c-2.653-.713-5.365-1.194-8.108-1.442 2.103-6.717 3.188-13.707 3.188-20.899 0-7.663-3.225-15.044-8.848-20.251s-13.227-7.854-20.869-7.268l-21.097 1.623c-15.849 1.219-30.956 7.874-42.539 18.737-10.282 9.644-17.434 22.263-20.476 35.932-22.044 2.72-39.366 20.614-41.618 42.499h-47.06c12.884-68.971 73.786-120.067 144.755-120.067zm38.416 70.246-78.666 6.051c6.589-21.31 25.441-36.681 48.338-38.443l21.097-1.623c3.54-.276 6.922.906 9.527 3.318 2.604 2.412 4.039 5.695 4.039 9.245-.001 7.476-1.459 14.677-4.335 21.452zm-91.174 22.058 100.5-7.731c3.464-.269 6.943.02 10.289.836l-11.264 34.658h-129.35c2.236-14.787 14.532-26.587 29.825-27.763zm129.561 382.307h-153.606c-20.72 0-38.013-15.535-40.226-36.136l-1.229-11.447h236.516l-1.229 11.446c-2.214 20.602-19.507 36.137-40.226 36.137zm59.463-215.241c-9.737 5.133-20.041 8.467-36.278 8.467-22.552 0-33.65-6.659-45.4-13.708-12.379-7.427-26.41-15.846-53.116-15.846-26.705 0-40.735 8.418-53.114 15.846-11.749 7.049-22.847 13.708-45.397 13.708-19.228 0-29.819-4.715-39.41-10.182l-8.935-83.183h290.77zm41.058-99.898h-354.648c-6.729 0-12.202-5.474-12.202-12.203s5.474-12.203 12.202-12.203h354.648c6.729 0 12.202 5.474 12.202 12.203s-5.473 12.203-12.202 12.203z"/></g></svg>