<svg id="Capa_1" enable-background="new 0 0 512 512" height="512" viewBox="0 0 512 512" width="512" xmlns="http://www.w3.org/2000/svg"><g><path d="m292.293 276.717c-21.899-13.995-50.089-3.481-68.11 14.542-14.952 14.952-22.194 33.922-20.962 50.272 12.012-12.66 29.26-22.5 45.469-31.551 18.836-10.509 38.048-21.341 43.603-33.263z"/><path d="m219.421 369.969c18.375 11.763 47.357 5.989 68.395-15.062 14.952-14.952 22.194-33.922 20.962-50.272-12.012 12.66-29.26 22.5-45.469 31.551-19.112 10.662-38.664 21.654-43.888 33.783z"/><path d="m378.789 466h-245.578l4.093 46h237.392z"/><path d="m130.485 436h251.03l20.458-225h-291.947zm72.488-165.952c32.882-32.882 85.349-41.918 116.66-10.605 29.238 29.238 24.492 81.577-10.605 116.675-32.805 32.805-85.66 41.605-116.66 10.605-29.239-29.239-24.494-81.577 10.605-116.675z"/><path d="m76 121h360v60h-360z"/><path d="m245.189 0-10.004 30h-93.457l-30 61h290.079l-29.996-91z"/></g></svg>